
    <svg xmlns="http://www.w3.org/2000/svg" viewBox="0 0 22 40" width="22" height="40">
        <style>
            tspan { white-space:pre }
            .shp0 { fill: #28a9e0 } 
        </style>
        <g id="CONTENT1">
            <path id="arrow right" class="shp0" d="M19.28 19.98L1.29 38.07C0.86 38.49 0.84 39.18 1.24 39.62C1.26 39.64 1.27 39.65 1.29 39.67C1.73 40.1 2.43 40.1 2.87 39.67L21.67 20.78C22.09 20.34 22.09 19.63 21.67 19.18L2.87 0.33C2.67 0.12 2.39 -0.01 2.09 -0.01C1.79 -0.01 1.5 0.11 1.29 0.33C0.86 0.74 0.84 1.44 1.24 1.88C1.26 1.89 1.27 1.91 1.29 1.93L19.28 19.98Z" />
        </g>
    </svg>