<svg xmlns="http://www.w3.org/2000/svg" width="42" height="42" viewBox="0 0 42 42"><g><g><path fill="#b3b3b3" d="M4.539 13.672l8.596 23.55c-6.011-2.92-10.156-9.085-10.156-16.217 0-2.612.56-5.093 1.56-7.333zM31.79 25.92l-1.798 6.006-6.511-19.37c1.084-.058 2.062-.172 2.062-.172.97-.115.856-1.542-.116-1.485 0 0-2.917.23-4.802.23-1.77 0-4.746-.23-4.746-.23-.971-.057-1.085 1.428-.114 1.485 0 0 .92.114 1.89.171l2.807 7.692-3.943 11.827-6.562-19.519c1.086-.057 2.062-.171 2.062-.171.97-.115.856-1.542-.115-1.485 0 0-2.918.23-4.803.23-.338 0-.736-.01-1.16-.023 3.223-4.891 8.76-8.12 15.056-8.12 4.692 0 8.963 1.792 12.168 4.73-.077-.005-.153-.015-.233-.015-1.77 0-3.026 1.542-3.026 3.198 0 1.485.857 2.742 1.77 4.226.686 1.2 1.486 2.742 1.486 4.97 0 1.542-.593 3.332-1.372 5.825zm-4.937 11.835c.036.09.08.171.128.248a18.013 18.013 0 0 1-11.074.288l5.407-15.711zm12.163-16.751c0 6.647-3.603 12.452-8.96 15.576l5.504-15.914c1.029-2.57 1.37-4.626 1.37-6.455 0-.663-.044-1.278-.121-1.852a17.918 17.918 0 0 1 2.207 8.645zm2.988 0c0 11.583-9.425 21.006-21.007 21.006S-.007 32.588-.007 21.005C-.007 9.423 9.416 0 20.998 0 32.58 0 42.005 9.423 42.005 21.005zm-.966 0C41.04 9.954 32.05.963 21 .963 9.946.963.955 9.953.955 21.005c0 11.051 8.991 20.043 20.042 20.043 11.051 0 20.041-8.992 20.041-20.043z"/></g></g></svg>