<svg xmlns="http://www.w3.org/2000/svg" width="36" height="42" viewBox="0 0 36 42"><g><g><path fill="#ccc" d="M23.362 32.63c0 3.658-2.875 6.626-6.42 6.626-3.547 0-6.422-2.968-6.422-6.627 0-3.66 2.875-6.626 6.422-6.626 3.545 0 6.42 2.967 6.42 6.626zm7.683-16.278c0-.648-.073-1.278-.202-1.886 4.24 4.696 6.764 9.876 4.053 16.758-1.962 4.975-6.343 9.083-11.638 10.77 2.864-2.063 4.741-5.487 4.741-9.365 0-3.062-1.171-5.84-3.073-7.89 3.53-1.047 6.119-4.405 6.119-8.387zm-8.458-5.069c2.712 0 4.91 2.27 4.91 5.07 0 2.798-2.198 5.067-4.91 5.067-2.713 0-4.912-2.27-4.912-5.068 0-2.8 2.2-5.069 4.912-5.069zM1.14 18.653C5.455 7.627 17.129 11.975 16.016.008c2.179 2.734 4.94 5.233 7.707 7.697a8.187 8.187 0 0 0-1.136-.081c-4.672 0-8.459 3.908-8.459 8.728 0 1.838.553 3.543 1.494 4.95-5.484.674-9.738 5.486-9.738 11.327 0 2.8.977 5.362 2.6 7.349-7.63-4.78-10.24-13.926-7.344-21.325z"/></g></g></svg>